<?xml version="1.0" standalone="no"?>
<!DOCTYPE svg PUBLIC "-//W3C//DTD SVG 20010904//EN"
 "http://www.w3.org/TR/2001/REC-SVG-20010904/DTD/svg10.dtd">
<svg version="1.0" xmlns="http://www.w3.org/2000/svg"
 width="840.000000pt" height="859.000000pt" viewBox="0 0 840.000000 859.000000"
 preserveAspectRatio="xMidYMid meet">

<g transform="translate(0.000000,859.000000) scale(0.100000,-0.100000)"
fill="#000000" stroke="none">
<path d="M4539 7315 c-3 -2 -14 -6 -25 -8 -33 -7 -54 -19 -48 -28 3 -5 -3 -6
-12 -2 -12 4 -15 3 -10 -5 4 -7 2 -10 -7 -7 -7 3 -27 -1 -43 -10 -16 -8 -25
-15 -20 -15 6 0 1 -6 -9 -14 -11 -8 -25 -12 -31 -9 -8 3 -11 -2 -7 -16 4 -16
1 -19 -18 -14 -15 4 -20 2 -15 -5 4 -7 -3 -10 -23 -7 -24 3 -32 -1 -37 -17 -3
-11 -9 -17 -13 -12 -6 9 -41 15 -41 8 0 -5 188 -94 199 -94 5 0 28 33 52 73
23 39 60 94 81 120 21 27 38 53 38 58 0 10 -4 12 -11 4z"/>
<path d="M2938 6678 c-25 -24 -53 -56 -63 -73 -10 -16 -34 -51 -54 -77 -28
-38 -38 -45 -52 -37 -12 6 -20 5 -24 -1 -4 -6 -11 -8 -16 -5 -11 7 -85 -62
-76 -71 3 -3 -6 -17 -21 -31 -15 -13 -20 -21 -12 -17 8 4 -20 -26 -62 -66 -43
-41 -78 -79 -78 -85 0 -7 -16 -29 -35 -49 -19 -20 -41 -47 -50 -59 -8 -12 -21
-22 -28 -22 -6 -1 -11 -6 -10 -13 2 -7 -3 -12 -10 -12 -7 0 -25 -15 -41 -32
-16 -18 -31 -33 -35 -33 -3 0 -50 -44 -103 -98 -53 -53 -100 -97 -105 -97 -9
0 -163 -145 -163 -154 0 -3 -18 -22 -40 -42 -22 -20 -40 -43 -40 -50 0 -8 -7
-17 -15 -20 -8 -4 -15 -11 -15 -16 0 -5 -18 -27 -40 -49 -22 -22 -40 -44 -40
-49 0 -6 -5 -10 -11 -10 -12 0 -39 -25 -39 -35 0 -4 -9 -20 -21 -36 -11 -16
-18 -29 -14 -29 3 0 -5 -15 -19 -33 -15 -19 -26 -41 -26 -50 0 -10 -5 -17 -11
-17 -5 0 -7 -4 -4 -10 3 -5 1 -10 -4 -10 -6 0 -11 -7 -11 -15 0 -8 -4 -15 -8
-15 -5 0 -16 -18 -25 -40 -9 -24 -22 -40 -32 -40 -9 0 -13 -5 -10 -10 4 -6 1
-17 -5 -25 -7 -8 -10 -15 -7 -15 3 0 0 -12 -8 -26 -7 -15 -11 -32 -9 -39 3 -7
0 -16 -5 -20 -6 -3 -9 -11 -6 -16 4 -5 0 -12 -8 -15 -9 -3 -14 -16 -12 -30 1
-13 -1 -24 -5 -24 -4 0 -11 -11 -14 -25 -4 -14 -11 -25 -17 -25 -8 0 -7 -5 1
-15 8 -10 9 -15 2 -15 -6 0 -14 -17 -18 -37 -4 -21 -11 -44 -17 -51 -5 -7 -7
-15 -4 -19 3 -3 0 -17 -7 -32 -7 -14 -12 -33 -11 -41 1 -8 -3 -26 -7 -39 -5
-15 -4 -29 3 -37 9 -11 7 -14 -12 -14 -18 0 -21 -2 -10 -9 10 -7 12 -13 5 -23
-6 -7 -9 -24 -7 -38 2 -14 3 -43 2 -65 0 -22 0 -50 0 -62 1 -27 -19 -32 -20
-5 0 10 -2 12 -6 4 -3 -7 2 -23 10 -35 9 -14 13 -41 11 -77 -2 -34 1 -57 9
-62 9 -6 9 -8 0 -8 -20 0 -15 -44 7 -63 22 -19 26 -48 9 -80 -9 -16 -9 -22 0
-25 6 -2 11 -10 11 -18 0 -9 -3 -13 -8 -10 -4 2 -12 -7 -19 -20 -7 -16 -8 -22
0 -17 7 4 8 0 4 -11 -6 -14 -3 -17 9 -12 14 5 15 4 4 -9 -7 -8 -17 -12 -24 -8
-7 4 -6 1 1 -9 7 -8 10 -18 6 -22 -4 -4 1 -4 10 0 10 3 17 3 16 -2 -1 -5 -1
-11 1 -14 4 -12 8 -54 4 -42 -6 13 -26 17 -22 5 2 -5 -1 -9 -6 -10 -5 -1 -12
-5 -15 -10 -3 -4 -19 -13 -36 -19 -16 -5 -30 -17 -29 -25 1 -8 -7 -15 -17 -15
-11 0 -19 4 -19 8 0 4 -7 5 -15 2 -10 -4 -13 -13 -10 -24 3 -10 1 -21 -5 -25
-6 -3 -8 -11 -5 -16 4 -5 1 -9 -4 -9 -6 0 -11 5 -11 10 0 6 -5 10 -12 10 -6 0
-3 -10 8 -22 19 -21 19 -21 -1 -14 -15 5 -17 4 -9 -4 6 -6 18 -12 25 -14 8 -1
24 -8 37 -14 12 -7 26 -10 31 -7 5 3 11 1 13 -5 4 -12 85 -28 158 -31 63 -2
319 10 329 15 3 2 60 7 127 11 67 4 135 10 152 13 l30 7 -50 75 c-109 164
-209 402 -249 593 -29 137 -32 415 -6 557 99 533 488 997 967 1154 l105 34 2
108 c5 196 52 361 155 537 22 38 38 71 35 73 -2 2 -24 -15 -49 -38z"/>
<path d="M5895 6479 c-76 -10 -136 -27 -100 -28 19 -1 19 -1 0 -15 -11 -7 -53
-31 -94 -52 -114 -60 -304 -248 -271 -269 17 -11 12 -32 -35 -131 -53 -112
-78 -216 -60 -241 11 -15 14 -14 27 8 79 126 118 177 199 259 177 180 331 253
563 265 240 13 429 10 496 -8 245 -68 447 -277 535 -557 29 -91 36 -100 30
-42 -14 130 -93 317 -188 444 -119 160 -246 249 -445 313 -83 27 -102 50 -34
40 29 -4 27 -2 -13 10 -57 17 -486 19 -610 4z"/>
<path d="M5263 6117 c-121 -131 -233 -355 -284 -565 -29 -122 -28 -119 -44
-119 -8 0 -12 4 -9 9 3 4 0 8 -5 8 -6 0 -11 -5 -11 -11 0 -6 -9 -9 -20 -6 -11
3 -20 1 -20 -4 0 -5 -7 -9 -16 -9 -14 0 -14 -3 -3 -17 11 -15 11 -16 -1 -5
-15 13 -44 17 -36 4 2 -4 -5 -8 -17 -9 -12 0 -16 1 -9 4 6 3 12 9 12 15 0 6
-6 6 -15 -2 -8 -7 -15 -19 -15 -27 0 -8 -5 -11 -10 -8 -6 4 -8 10 -6 14 3 4
-1 8 -9 8 -8 0 -15 -4 -15 -8 0 -4 -8 -6 -17 -4 -10 1 -24 -2 -30 -8 -7 -5
-13 -6 -13 -1 0 4 -11 -3 -24 -15 -15 -14 -26 -19 -31 -12 -3 6 -11 11 -16 11
-6 0 -7 -4 -4 -10 3 -6 -1 -7 -10 -4 -9 4 -22 -1 -31 -12 -9 -11 -13 -13 -9
-6 4 7 0 12 -10 12 -13 0 -14 -4 -5 -21 11 -19 10 -20 -9 -9 -16 8 -21 8 -21
-2 0 -10 -2 -10 -9 1 -6 9 -11 10 -15 2 -4 -6 -11 -9 -16 -6 -5 3 -7 -5 -5
-17 4 -22 4 -22 -10 -4 -8 11 -15 15 -15 8 0 -6 -6 -9 -14 -6 -8 3 -17 0 -21
-5 -3 -6 -11 -9 -16 -6 -5 4 -9 2 -9 -4 0 -6 -16 -13 -35 -17 -19 -3 -35 -10
-35 -14 0 -5 -8 -7 -17 -5 -10 1 -27 -2 -38 -8 -11 -6 -26 -10 -33 -9 -7 2
-11 -1 -10 -5 2 -4 -1 -9 -5 -10 -5 -1 -15 -10 -24 -20 -8 -10 -12 -12 -8 -5
7 13 -66 -26 -77 -42 -4 -6 -10 -7 -14 -3 -4 4 -13 2 -21 -4 -10 -9 -13 -8
-13 1 0 6 -12 -2 -26 -19 -14 -17 -32 -31 -40 -31 -9 0 -13 -4 -10 -9 4 -5 -2
-7 -13 -4 -13 3 -20 -2 -25 -19 -5 -14 -9 -18 -13 -10 -2 6 -11 12 -19 12 -10
0 -12 -5 -8 -12 6 -10 4 -10 -8 0 -13 10 -18 10 -24 1 -4 -8 -3 -9 4 -5 20 12
13 -4 -13 -30 -21 -21 -25 -22 -25 -7 0 15 -2 15 -9 3 -6 -8 -8 -17 -5 -21 2
-4 -3 -10 -12 -13 -8 -3 -12 -2 -9 3 3 5 1 12 -5 16 -5 3 -10 -3 -10 -14 0
-12 -6 -21 -12 -21 -10 0 -10 -2 -2 -8 9 -5 9 -10 0 -17 -18 -15 -36 -17 -36
-3 0 6 -3 8 -6 5 -4 -4 -1 -13 6 -22 8 -10 9 -15 1 -15 -6 0 -11 -8 -11 -17 0
-11 -3 -14 -8 -7 -10 15 -39 13 -39 -3 0 -10 4 -10 16 -1 13 10 14 10 4 -1 -6
-7 -9 -21 -5 -30 5 -14 3 -14 -12 2 -21 20 -33 23 -17 4 8 -11 5 -16 -14 -25
-23 -11 -30 -23 -26 -45 1 -5 -3 -6 -8 -3 -5 4 -12 0 -14 -6 -3 -8 -6 -5 -6 6
-1 15 -3 16 -16 6 -12 -10 -13 -15 -4 -20 7 -5 8 -10 1 -14 -6 -3 -14 3 -17
15 l-7 21 -15 -22 c-8 -11 -12 -28 -9 -37 4 -10 2 -14 -7 -10 -23 9 -51 -34
-50 -77 0 -21 -3 -33 -7 -26 -5 9 -9 9 -14 1 -4 -6 -4 -16 0 -23 4 -7 3 -8 -4
-4 -7 4 -12 1 -12 -8 0 -9 -3 -15 -7 -15 -23 4 -35 -3 -29 -16 3 -8 1 -25 -4
-37 -5 -14 -9 -17 -10 -8 0 13 -2 13 -9 0 -6 -8 -7 -18 -5 -22 3 -4 -1 -8 -8
-8 -9 0 -9 -3 2 -10 10 -6 11 -10 3 -10 -7 0 -13 -7 -13 -16 0 -8 -6 -21 -13
-28 -7 -8 -19 -33 -27 -57 -8 -24 -19 -47 -25 -51 -6 -5 -5 -8 3 -8 9 0 10 -5
3 -19 -6 -10 -7 -22 -3 -26 4 -4 -3 -4 -15 -1 -20 6 -23 4 -23 -18 0 -14 -4
-28 -10 -31 -5 -3 -10 -11 -10 -17 0 -6 7 -5 17 3 15 13 15 12 4 -8 -6 -13
-19 -23 -29 -24 -10 0 -12 -3 -4 -6 6 -2 10 -9 6 -14 -3 -5 0 -9 7 -9 8 0 5
-7 -6 -20 -9 -10 -15 -26 -11 -35 3 -10 2 -13 -4 -10 -7 4 -9 -3 -6 -19 3 -15
1 -24 -4 -21 -5 3 -11 1 -15 -5 -3 -5 1 -10 9 -10 8 0 18 -4 21 -10 3 -5 0 -7
-8 -4 -8 3 -18 0 -22 -5 -3 -6 -11 -9 -16 -6 -5 3 -6 -1 -3 -9 3 -8 1 -30 -4
-50 -8 -26 -7 -38 3 -46 9 -8 15 -8 20 0 3 5 -2 10 -12 11 -11 0 -13 3 -5 6 6
2 10 9 6 14 -3 5 -2 19 1 30 6 17 9 19 16 8 5 -8 9 -18 9 -24 0 -5 -5 -3 -10
5 -8 13 -10 12 -10 -2 0 -10 4 -18 9 -18 5 0 8 -6 7 -14 -3 -23 -28 -47 -43
-42 -8 4 -11 1 -8 -5 4 -6 13 -8 21 -5 8 3 14 1 14 -4 0 -6 -7 -10 -15 -10 -8
0 -15 -5 -15 -11 0 -5 5 -7 12 -3 7 5 8 3 3 -6 -11 -17 -12 -84 -4 -127 4 -18
4 -33 0 -33 -3 0 -7 -11 -7 -25 -2 -23 0 -24 15 -13 14 11 14 11 4 -3 -7 -9
-9 -20 -5 -24 4 -5 2 -5 -5 -1 -6 3 -14 2 -18 -4 -4 -6 -10 -8 -15 -5 -4 3 -6
-4 -3 -15 3 -11 10 -17 16 -13 6 4 8 0 4 -10 -3 -9 -2 -19 2 -22 5 -3 7 -14 4
-25 -3 -11 -10 -17 -17 -13 -6 4 -5 -1 3 -10 7 -9 18 -14 25 -10 12 8 -13 -28
-29 -39 -6 -5 -5 -8 4 -8 8 0 4 -7 -10 -18 -15 -13 -19 -21 -10 -26 7 -4 10
-2 9 5 -2 6 2 13 7 15 6 2 11 -4 11 -15 0 -14 -6 -18 -23 -16 -12 1 -21 -3
-20 -8 1 -6 -16 -11 -38 -11 -22 -1 -46 -5 -52 -9 -7 -5 -18 -5 -25 -1 -7 4
-8 3 -4 -4 4 -7 2 -20 -4 -29 -11 -16 -11 -16 -5 1 6 19 5 19 -15 1 -22 -20
-27 -30 -8 -19 7 4 8 3 4 -4 -4 -6 -13 -9 -21 -5 -8 3 -15 0 -15 -7 0 -6 -4
-9 -9 -5 -6 3 -15 -4 -21 -16 -7 -12 -8 -19 -2 -15 5 3 12 0 15 -8 4 -11 -1
-13 -22 -10 -22 4 -30 0 -34 -15 -3 -14 1 -22 13 -26 10 -3 21 -12 24 -20 3
-8 12 -12 21 -9 8 4 22 1 29 -6 8 -6 70 -16 138 -22 132 -12 175 -8 678 57
222 29 504 65 508 65 1 0 2 19 2 43 0 28 3 37 9 28 7 -11 10 -9 16 7 3 12 9
21 13 21 20 -3 32 2 27 11 -3 6 0 13 9 16 9 3 12 12 9 21 -4 10 -2 14 4 10 5
-3 20 12 32 33 12 22 26 40 32 40 5 0 8 3 8 8 -4 23 2 42 12 36 8 -4 9 0 4 15
-4 12 -2 21 4 21 6 0 10 3 9 8 -1 4 4 23 11 42 8 19 15 48 16 65 1 16 7 31 13
33 5 1 8 12 5 23 -3 10 0 25 6 33 6 7 12 26 14 42 2 16 7 37 11 47 5 10 3 24
-5 34 -12 14 -12 16 0 8 11 -6 13 -4 8 8 -3 10 -3 17 1 17 9 0 9 112 0 126 -4
6 -5 14 -1 17 3 4 7 22 9 41 2 24 -2 36 -13 40 -14 6 -14 8 3 22 10 9 13 12 5
8 -11 -5 -13 -2 -9 14 4 12 2 22 -2 22 -5 0 -9 8 -9 18 0 9 -2 56 -4 105 -3
48 -1 87 4 87 4 0 5 10 3 23 -3 12 -5 28 -5 35 1 6 2 28 3 47 1 19 5 35 10 35
5 0 7 4 4 9 -3 5 1 12 9 15 8 3 14 9 13 13 -2 5 7 21 19 37 20 24 37 32 108
49 6 1 15 5 20 8 17 10 97 28 145 33 46 5 99 12 158 22 24 4 32 10 32 25 0 11
-4 18 -9 15 -15 -10 -23 205 -18 494 4 258 6 281 31 373 51 191 153 393 258
512 43 50 28 43 -19 -8z m-588 -756 c3 -5 2 -12 -3 -15 -5 -3 -9 1 -9 9 0 17
3 19 12 6z m-1410 -1141 c3 -5 1 -10 -4 -10 -6 0 -11 5 -11 10 0 6 2 10 4 10
3 0 8 -4 11 -10z m-105 -680 c0 -5 -7 -7 -15 -4 -8 4 -15 8 -15 10 0 2 7 4 15
4 8 0 15 -4 15 -10z m-250 -331 c0 -6 -4 -7 -10 -4 -5 3 -10 11 -10 16 0 6 5
7 10 4 6 -3 10 -11 10 -16z"/>
<path d="M5962 6140 c-266 -71 -502 -336 -581 -650 -23 -89 -28 -122 -40 -255
-33 -347 -42 -421 -56 -441 -11 -17 -28 -24 -71 -29 -32 -5 -58 -13 -61 -21
-7 -18 -27 -18 -43 1 -7 8 -28 15 -47 15 -32 0 -35 -2 -29 -22 3 -13 6 -26 6
-30 0 -5 4 -8 10 -8 18 0 50 -34 50 -53 0 -11 -16 -41 -35 -67 -19 -26 -35
-59 -35 -73 0 -14 -11 -45 -25 -68 -40 -71 -29 -70 49 6 50 49 97 83 149 109
74 36 80 38 289 56 117 11 310 29 428 40 348 32 1373 120 1408 120 63 0 144
-40 206 -102 42 -43 53 -50 38 -26 -32 50 -103 118 -147 141 -43 22 -180 67
-205 67 -12 0 -15 8 -12 35 5 39 9 37 -86 35 -49 -1 -71 -7 -100 -26 -38 -26
-69 -28 -64 -3 8 30 1 651 -8 702 -12 75 -85 290 -117 345 -46 80 -129 155
-208 187 l-70 30 -260 2 c-231 2 -268 0 -333 -17z m481 -75 c149 -39 255 -135
334 -303 54 -115 74 -229 74 -412 -1 -85 -4 -187 -7 -227 l-7 -71 -81 -2 c-44
-1 -147 -4 -229 -8 -116 -6 -146 -4 -142 6 2 6 0 13 -5 13 -28 4 -62 20 -84
41 -11 10 -30 18 -43 18 -13 0 -23 5 -23 10 0 6 -5 10 -11 10 -7 0 -22 11 -34
24 -13 14 -25 22 -28 20 -3 -3 -10 4 -17 15 -6 12 -8 21 -5 21 4 0 -1 7 -9 16
-9 8 -20 12 -26 9 -5 -3 -10 -1 -10 5 0 6 -6 18 -14 25 -10 11 -16 11 -26 2
-10 -10 -12 -8 -7 5 4 12 1 16 -12 13 -14 -2 -17 1 -14 14 6 23 -35 50 -74 50
-54 0 -64 3 -51 18 8 11 7 12 -6 7 -9 -3 -16 -11 -16 -18 0 -6 -4 -5 -9 3 -5
8 -7 21 -4 30 4 12 2 11 -9 -2 -13 -17 -15 -17 -27 -3 -7 8 -14 22 -15 29 -3
26 -25 44 -48 42 -13 -1 -27 3 -31 9 -6 7 -7 6 -4 -4 2 -8 9 -15 14 -15 6 0
15 -4 20 -9 5 -5 3 -6 -4 -2 -8 4 -13 2 -13 -6 0 -8 -5 -6 -11 5 -6 9 -15 15
-20 12 -5 -4 -6 -11 -3 -17 5 -7 2 -8 -5 -3 -9 5 -10 10 -2 18 15 15 14 28 -1
24 -7 -1 -12 4 -11 11 2 6 -1 12 -6 12 -5 0 -12 -6 -15 -12 -4 -7 -4 -3 -2 9
2 13 -1 26 -6 30 -7 3 -8 1 -4 -5 4 -7 2 -12 -5 -12 -7 0 -9 8 -6 21 4 16 3
18 -8 9 -10 -8 -15 -4 -24 20 -9 28 -12 30 -33 19 -21 -11 -22 -11 -9 4 10 13
10 17 1 17 -10 0 -10 3 0 16 8 8 9 14 4 13 -26 -5 -35 2 -29 24 5 17 4 19 -4
7 -9 -13 -12 -13 -27 2 -15 15 -16 23 -6 56 14 47 95 156 154 207 119 103 218
135 446 145 263 11 275 11 335 -5z m-647 -632 c-7 -7 -26 7 -26 19 0 6 6 6 15
-2 9 -7 13 -15 11 -17z"/>
<path d="M5820 5425 c0 -5 5 -17 10 -25 5 -8 10 -10 10 -5 0 6 -5 17 -10 25
-5 8 -10 11 -10 5z"/>
<path d="M5925 5370 c3 -5 8 -10 11 -10 2 0 4 5 4 10 0 6 -5 10 -11 10 -5 0
-7 -4 -4 -10z"/>
<path d="M6248 5133 c7 -3 16 -2 19 1 4 3 -2 6 -13 5 -11 0 -14 -3 -6 -6z"/>
<path d="M5245 5940 c-25 -39 -45 -83 -45 -98 0 -7 32 40 69 101 31 50 8 48
-24 -3z"/>
<path d="M4626 5363 c-6 -14 -5 -15 5 -6 7 7 10 15 7 18 -3 3 -9 -2 -12 -12z"/>
<path d="M3975 5100 c-3 -5 -1 -10 4 -10 6 0 11 5 11 10 0 6 -2 10 -4 10 -3 0
-8 -4 -11 -10z"/>
<path d="M7230 4921 c0 -5 11 -12 24 -15 13 -3 32 -8 43 -12 10 -3 2 4 -17 15
-39 23 -50 25 -50 12z"/>
<path d="M6770 4700 c-173 -15 -389 -35 -480 -44 -91 -9 -325 -30 -520 -46
-459 -39 -492 -44 -567 -80 -73 -36 -176 -132 -225 -210 -46 -73 -95 -198
-113 -290 -18 -90 -23 -306 -29 -1253 -3 -419 -1 -705 6 -750 18 -131 78 -253
166 -332 54 -49 61 -53 142 -82 l65 -24 -55 6 c-107 11 -215 90 -346 250 -27
33 -51 62 -55 65 -3 3 -18 23 -35 45 -16 22 -41 51 -56 65 -72 68 -98 90 -108
90 -6 0 -8 4 -5 10 3 5 -6 12 -20 16 -17 4 -24 11 -21 21 3 8 1 11 -4 8 -6 -3
-10 0 -11 7 0 7 -4 4 -9 -7 -7 -17 -9 -17 -9 -2 -1 9 -5 17 -10 17 -5 0 -13 9
-16 20 -3 11 -11 20 -16 20 -6 0 -7 -4 -4 -10 3 -6 -1 -7 -9 -4 -9 3 -16 10
-16 14 0 4 -9 10 -21 13 -13 4 -18 10 -13 18 4 8 3 10 -4 5 -7 -4 -12 -2 -12
3 0 6 -9 11 -19 11 -11 0 -23 5 -26 10 -4 6 -11 8 -16 5 -5 -4 -12 0 -15 9 -3
8 -11 17 -18 19 -18 7 -19 -57 -1 -143 32 -157 141 -327 264 -411 46 -32 50
-37 48 -72 -2 -20 -5 -36 -8 -35 -3 2 -12 -2 -20 -8 -8 -6 -26 -14 -41 -18
-16 -3 -28 -11 -28 -17 0 -6 -4 -8 -9 -5 -5 3 -11 -3 -14 -14 -3 -11 -1 -18 4
-14 8 4 11 -2 8 -22 -1 -7 54 -54 63 -54 5 0 7 -3 7 -8 -4 -21 5 -30 44 -47
23 -11 44 -20 47 -21 3 0 16 -4 30 -7 14 -4 38 -9 53 -11 16 -3 43 -10 60 -15
57 -19 184 -27 370 -25 100 1 198 5 217 8 60 9 112 16 195 26 85 10 124 16
165 26 34 8 55 12 130 24 36 5 85 14 110 20 25 6 59 13 75 16 92 16 139 25
225 43 52 11 112 22 134 25 21 4 43 9 48 12 5 3 24 8 41 10 18 3 52 9 77 15
62 13 79 17 218 44 13 2 31 6 40 9 9 3 31 8 47 11 17 3 54 11 83 19 28 8 52
12 52 9 0 -3 6 -1 13 5 6 5 31 13 54 17 24 4 45 11 49 16 3 5 9 7 14 4 4 -3
10 2 14 10 3 8 12 15 21 15 8 0 15 7 15 15 0 8 13 28 29 44 51 52 61 72 50 94
-10 17 -2 28 53 79 34 33 50 51 33 40 -51 -33 -128 -69 -165 -76 -58 -11 -264
-46 -274 -46 -30 0 17 12 154 40 94 19 175 41 205 56 78 40 173 140 198 208 4
10 -27 -14 -69 -53 -67 -62 -81 -71 -114 -71 -21 0 -51 -5 -67 -12 -15 -6 -35
-12 -43 -13 -8 0 -24 -4 -35 -8 -12 -4 -45 -9 -75 -11 -30 -3 -98 -12 -150
-20 -112 -18 -192 -26 -277 -29 -34 -1 -65 -6 -69 -9 -4 -4 -15 -3 -25 3 -12
6 -19 6 -19 0 0 -5 -10 -8 -22 -6 -12 3 -28 -1 -37 -8 -12 -10 -13 -9 -6 3 7
13 6 13 -7 2 -13 -10 -17 -10 -21 0 -4 10 -6 10 -6 1 -1 -7 -13 -13 -27 -13
-14 0 -23 -4 -20 -8 2 -4 -7 -8 -22 -9 -24 -2 -24 -1 -7 7 16 7 17 9 3 9 -9 1
-20 -4 -23 -9 -4 -6 -10 -8 -15 -5 -5 3 -13 -3 -19 -12 -10 -17 -10 -17 -11 2
l-1 20 -9 -20 c-5 -11 -9 -14 -9 -7 -1 6 -6 12 -12 12 -5 0 -7 -6 -3 -12 6
-10 4 -10 -8 0 -10 8 -19 9 -22 3 -3 -5 -17 -8 -31 -6 -14 1 -25 -2 -25 -7 0
-5 -3 -7 -7 -5 -5 3 -19 0 -33 -6 -14 -5 -40 -9 -57 -8 -22 2 -33 -2 -33 -11
0 -10 -3 -9 -10 2 -8 12 -10 12 -10 -5 0 -11 -4 -15 -8 -10 -10 14 -62 18 -62
5 0 -6 -4 -8 -10 -5 -5 3 -10 0 -10 -7 0 -9 -3 -9 -10 2 -9 13 -11 13 -20 0
-6 -9 -21 -14 -43 -12 -19 2 -38 -1 -41 -6 -3 -6 -18 -9 -32 -7 -14 1 -28 -3
-30 -10 -3 -7 -18 -11 -40 -8 -18 2 -34 0 -34 -5 0 -5 -6 -9 -12 -9 -7 -1 -38
-4 -68 -8 -30 -4 -67 -7 -82 -8 -16 0 -28 -5 -28 -11 0 -6 -4 -5 -9 2 -6 11
-11 10 -25 -3 -10 -11 -16 -12 -16 -4 0 7 -3 9 -7 6 -3 -4 -12 -2 -20 4 -10 9
-13 7 -13 -7 0 -13 -3 -15 -8 -7 -4 7 -17 14 -27 16 -11 1 -26 6 -32 10 -8 5
-13 3 -13 -5 0 -9 -3 -9 -10 2 -5 8 -10 11 -10 5 0 -5 -7 -1 -15 9 -10 13 -15
15 -15 6 0 -10 -4 -10 -17 2 -10 9 -34 23 -53 32 -38 18 -100 70 -100 85 0 5
-6 11 -14 14 -20 8 -93 165 -101 217 -4 25 -7 82 -8 127 -1 45 -5 85 -9 89 -4
4 -3 13 3 21 8 9 8 17 0 26 -8 10 -7 17 1 25 9 9 9 15 0 24 -7 7 -8 17 -2 29
7 11 7 20 0 24 -5 3 -10 12 -10 18 0 7 4 6 10 -3 8 -13 10 -12 10 3 0 9 -4 17
-10 17 -5 0 -10 5 -10 11 0 5 4 8 8 5 9 -5 8 41 -1 51 -4 3 -7 11 -7 17 0 6 5
4 10 -4 7 -12 9 -10 7 7 0 12 -5 19 -9 17 -4 -3 -8 6 -8 20 0 14 5 26 12 26 9
0 9 3 0 12 -16 16 -16 118 1 118 8 0 7 3 -3 10 -30 19 -18 1009 14 1145 22 92
16 74 74 210 17 41 108 156 149 188 13 10 30 26 39 35 31 31 119 63 199 73 44
5 97 12 118 14 21 3 122 12 225 20 103 8 234 20 292 25 58 5 159 14 225 20 66
5 192 17 280 25 88 9 210 20 270 25 61 5 128 12 150 14 135 19 244 24 285 15
64 -15 157 -70 212 -126 25 -26 65 -82 87 -123 22 -41 41 -68 41 -59 0 30 -41
153 -65 192 -33 56 -98 121 -147 148 -65 35 -244 35 -638 -1z m65 -2810 c-11
-5 -29 -8 -40 -8 -16 0 -15 2 5 8 34 11 60 11 35 0z m-598 -116 c-3 -3 -12 -4
-19 -1 -8 3 -5 6 6 6 11 1 17 -2 13 -5z m-670 -130 c-3 -3 -12 -4 -19 -1 -8 3
-5 6 6 6 11 1 17 -2 13 -5z m-289 -51 c-10 -2 -26 -2 -35 0 -10 3 -2 5 17 5
19 0 27 -2 18 -5z"/>
<path d="M4901 4401 c-24 -33 -28 -56 -5 -26 20 26 36 55 30 55 -3 0 -14 -13
-25 -29z"/>
<path d="M1270 4345 c0 -8 4 -15 10 -15 5 0 7 7 4 15 -4 8 -8 15 -10 15 -2 0
-4 -7 -4 -15z"/>
<path d="M3186 4098 c-10 -38 -7 -44 10 -19 11 15 13 26 6 33 -6 6 -11 1 -16
-14z"/>
<path d="M3156 4052 c-3 -5 1 -9 9 -9 8 0 12 4 9 9 -3 4 -7 8 -9 8 -2 0 -6 -4
-9 -8z"/>
<path d="M1312 4030 c0 -14 2 -19 5 -12 2 6 2 18 0 25 -3 6 -5 1 -5 -13z"/>
<path d="M1301 3796 c-10 -12 -8 -13 8 -9 12 3 18 9 15 14 -7 12 -10 11 -23
-5z"/>
<path d="M1136 3675 c-3 -9 0 -15 9 -15 16 0 20 16 6 24 -5 3 -11 -1 -15 -9z"/>
<path d="M6343 3581 c-23 -11 -56 -30 -73 -42 -30 -23 -68 -70 -53 -68 19 3
33 -2 33 -11 0 -12 41 -73 53 -78 4 -2 7 -13 7 -25 0 -11 -3 -18 -6 -14 -3 3
-16 2 -28 -2 -11 -5 -44 -5 -73 -2 -59 8 -63 4 -63 -84 0 -95 46 -193 105
-225 l28 -15 -7 -107 c-6 -95 -5 -113 13 -152 10 -24 28 -49 39 -55 35 -18 96
-13 132 12 38 25 50 47 26 47 -19 0 -20 5 -4 33 7 13 13 78 15 156 3 138 10
164 38 141 17 -14 38 -2 57 34 11 20 10 20 -15 3 -15 -9 -29 -17 -32 -17 -3 0
8 26 24 58 17 31 38 88 47 126 50 203 -96 362 -263 287z"/>
<path d="M3117 3429 c7 -7 15 -10 18 -7 3 3 -2 9 -12 12 -14 6 -15 5 -6 -5z"/>
<path d="M2820 3181 c0 -7 -5 -9 -12 -5 -7 5 -8 3 -3 -5 5 -9 10 -10 18 -2 6
6 8 14 4 18 -4 3 -7 1 -7 -6z"/>
<path d="M5970 2659 c0 -17 95 -109 113 -109 7 0 -12 21 -41 46 -28 25 -56 53
-62 62 -8 15 -9 15 -10 1z"/>
</g>
</svg>
